<svg xmlns="http://www.w3.org/2000/svg" xmlns:xlink="http://www.w3.org/1999/xlink" id="Layer_1" width="185" height="185" fill="#fff" enable-background="new 0 0 64 64" version="1.0" viewBox="-5.76 -5.76 75.52 75.52" xml:space="preserve"><g id="SVGRepo_tracerCarrier" stroke="#81A1C1" stroke-linecap="round" stroke-linejoin="round" stroke-width="3.968"><path fill="#231F20" d="M52,24h-4v-8c0-8.836-7.164-16-16-16S16,7.164,16,16v8h-4c-2.211,0-4,1.789-4,4v32c0,2.211,1.789,4,4,4h40 c2.211,0,4-1.789,4-4V28C56,25.789,54.211,24,52,24z M32,48c-2.211,0-4-1.789-4-4s1.789-4,4-4s4,1.789,4,4S34.211,48,32,48z M40,24 H24v-8c0-4.418,3.582-8,8-8s8,3.582,8,8V24z"/></g><g id="SVGRepo_iconCarrier"><path fill="#231F20" d="M52,24h-4v-8c0-8.836-7.164-16-16-16S16,7.164,16,16v8h-4c-2.211,0-4,1.789-4,4v32c0,2.211,1.789,4,4,4h40 c2.211,0,4-1.789,4-4V28C56,25.789,54.211,24,52,24z M32,48c-2.211,0-4-1.789-4-4s1.789-4,4-4s4,1.789,4,4S34.211,48,32,48z M40,24 H24v-8c0-4.418,3.582-8,8-8s8,3.582,8,8V24z"/></g></svg>